<?xml version="1.0" encoding="UTF-8"?>
<!DOCTYPE svg PUBLIC "-//W3C//DTD SVG 1.1//EN" "http://www.w3.org/Graphics/SVG/1.1/DTD/svg11.dtd">
<!-- Creator: CorelDRAW -->
<svg xmlns="http://www.w3.org/2000/svg" xml:space="preserve" width="91.6892mm" height="97.7148mm" version="1.1" style="shape-rendering:geometricPrecision; text-rendering:geometricPrecision; image-rendering:optimizeQuality; fill-rule:evenodd; clip-rule:evenodd"
viewBox="0 0 9168.92 9771.48"
 xmlns:xlink="http://www.w3.org/1999/xlink"
 xmlns:xodm="http://www.corel.com/coreldraw/odm/2003">
 <defs>
  <style type="text/css">
   <![CDATA[
    .str0 {stroke:black;stroke-width:21.66;stroke-linecap:round;stroke-miterlimit:22.9256;stroke-opacity:0.149020}
    .str1 {stroke:black;stroke-width:21.66;stroke-linecap:round;stroke-miterlimit:22.9256;stroke-opacity:0.250980}
    .str2 {stroke:black;stroke-width:21.66;stroke-linecap:round;stroke-miterlimit:22.9256;stroke-dasharray:109.860000 109.860000;stroke-opacity:0.250980}
    .fil10 {fill:none;fill-rule:nonzero}
    .fil18 {fill:none;fill-rule:nonzero}
    .fil14 {fill:#0C2059;fill-rule:nonzero}
    .fil17 {fill:#169799;fill-rule:nonzero}
    .fil4 {fill:#20C3C5;fill-rule:nonzero}
    .fil15 {fill:#2E4780;fill-rule:nonzero}
    .fil11 {fill:#382424;fill-rule:nonzero}
    .fil6 {fill:#383873;fill-rule:nonzero}
    .fil7 {fill:#86BFBC;fill-rule:nonzero}
    .fil9 {fill:#9FCCC9;fill-rule:nonzero}
    .fil8 {fill:#B8E3E2;fill-rule:nonzero}
    .fil1 {fill:#E03C03;fill-rule:nonzero}
    .fil0 {fill:#EAF9F8;fill-rule:nonzero}
    .fil2 {fill:#FF6224;fill-rule:nonzero}
    .fil12 {fill:#FFAD94;fill-rule:nonzero}
    .fil3 {fill:#FFC947;fill-rule:nonzero}
    .fil5 {fill:white;fill-rule:nonzero}
    .fil16 {fill:black;fill-rule:nonzero;fill-opacity:0.149020}
    .fil13 {fill:black;fill-rule:nonzero;fill-opacity:0.250980}
    .fil19 {fill:black;fill-rule:nonzero;fill-opacity:0.529412}
   ]]>
  </style>
 </defs>
 <g id="Capa_x0020_1">
  <metadata id="CorelCorpID_0Corel-Layer"/>
  <g id="OBJECTS">
   <g>
    <path class="fil0" d="M8924.02 4556.27c-617.62,924.69 -1935.59,3784.52 -1611.39,4845.87l-4728.29 1.08c0,0 -683.23,-508.69 -1346.97,-1393.11 -120.62,-160.68 -240.59,-333.93 -355.57,-518.66 -122.13,-195.77 -238.65,-404.52 -344.54,-625.42 -307.74,-640.58 -527.31,-1382.92 -536.2,-2203.45 -30.99,-2840.33 2427.36,-5480.13 5771.64,-4414.89 3344.25,1065.23 3768.7,3383.88 3151.32,4308.58z"/>
    <g>
     <g>
      <path class="fil1" d="M5965.64 9435.63c-9.5,0 -18.92,-4.15 -25.32,-12.12l-2521.53 -3135.15c-11.24,-13.97 -9.02,-34.42 4.95,-45.69 13.97,-11.22 34.42,-9 45.67,4.95l2521.52 3135.15c11.24,13.97 9.02,34.42 -4.95,45.69 -6,4.82 -13.2,7.17 -20.34,7.17z"/>
     </g>
     <g>
      <path class="fil2" d="M2054.22 9435.63c-7.14,0 -14.34,-2.35 -20.35,-7.17 -13.97,-11.24 -16.19,-31.7 -4.95,-45.69l2521.53 -3135.15c11.3,-13.94 31.7,-16.17 45.67,-4.95 13.97,11.24 16.19,31.7 4.95,45.69l-2521.53 3135.15c-6.4,7.97 -15.82,12.12 -25.32,12.12z"/>
     </g>
     <g>
      <path class="fil2" d="M4575.81 9435.63c-9.5,0 -18.92,-4.15 -25.35,-12.12l-2521.53 -3135.15c-11.24,-13.97 -9.02,-34.42 4.95,-45.69 14,-11.22 34.42,-9 45.67,4.95l2521.53 3135.15c11.24,13.97 9.02,34.42 -4.95,45.69 -5.98,4.82 -13.18,7.17 -20.32,7.17z"/>
     </g>
     <path class="fil1" d="M2501.05 6351.23l-1171.47 0c-45.96,0 -83.24,-37.25 -83.24,-83.24l0 0c0,-45.96 37.25,-83.24 83.24,-83.24l1171.47 0c45.96,0 83.24,37.25 83.24,83.24l0 0c0,45.96 -37.28,83.24 -83.24,83.24z"/>
     <path class="fil2" d="M5871.66 6351.23l-3348.25 0c-45.96,0 -83.21,-37.25 -83.21,-83.24l0 0c0,-45.96 37.25,-83.24 83.21,-83.24l3348.25 0 0 166.48z"/>
     <g>
      <path class="fil1" d="M3405.92 7835.57c0,50.22 -40.69,90.91 -90.91,90.91 -50.22,0 -90.91,-40.69 -90.91,-90.91 0,-50.22 40.69,-90.91 90.91,-90.91 50.22,-0.01 90.91,40.69 90.91,90.91z"/>
     </g>
     <path class="fil3" d="M4795.75 7835.57c0,50.22 -40.69,90.91 -90.91,90.91 -50.22,0 -90.91,-40.69 -90.91,-90.91 0,-50.22 40.69,-90.91 90.91,-90.91 50.19,-0.01 90.91,40.69 90.91,90.91z"/>
    </g>
    <g>
     <path class="fil4" d="M3586.05 3699.86l-1180.2 0c-58.29,0 -105.52,-47.25 -105.52,-105.52l0 -877.73c0,-58.29 47.23,-105.52 105.52,-105.52l1180.2 0.01c58.29,0 105.52,47.25 105.52,105.52l0 877.73c0,58.26 -47.23,105.51 -105.52,105.51z"/>
     <path class="fil5" d="M3297.87 3091.88l-43.69 0c-6.69,-23.87 -16.59,-46.49 -29.47,-67.2l33.71 -33.71c12.86,-12.86 12.86,-33.68 0,-46.54l-47.44 -47.44c-12.86,-12.86 -33.68,-12.86 -46.54,0l-35.82 35.82c-19.79,-11.14 -41.01,-19.9 -63.42,-25.56l0 -53.71c0,-18.18 -14.74,-32.89 -32.89,-32.89l-67.08 0c-18.18,0 -32.89,14.74 -32.89,32.89l0 54.32c-21.75,5.61 -42.36,13.84 -61.57,24.45l-39.32 -39.32c-12.86,-12.86 -33.68,-12.86 -46.54,0l-47.44 47.44c-12.86,12.86 -12.86,33.68 0,46.54l36.41 36.41c-12.17,19.37 -21.75,40.51 -28.63,62.84l-51.21 0c-18.18,0 -32.89,14.74 -32.89,32.89l0 67.07c0,18.18 14.74,32.89 32.89,32.89l44.87 -0.01c5.05,24.79 13.57,48.42 25.21,70.25l-30.64 30.64c-12.86,12.86 -12.86,33.68 0,46.51l47.44 47.44c12.86,12.86 33.68,12.86 46.54,0l26.64 -26.64c22.2,14.47 46.65,25.61 72.6,32.83l0 37.23c0,18.18 14.74,32.89 32.89,32.89l67.08 0c18.18,0 32.89,-14.74 32.89,-32.89l0 -34.74c26.88,-6.32 52.2,-16.56 75.25,-30.35l25.64 25.64c12.86,12.86 33.68,12.86 46.54,0l47.44 -47.44c12.86,-12.86 12.86,-33.68 0,-46.51l-26.33 -26.33c13.04,-22.44 22.89,-46.91 28.92,-72.92l40.85 0c18.18,0 32.89,-14.74 32.89,-32.89l0 -67.07c0,-18.1 -14.72,-32.83 -32.89,-32.83zm-266.07 238.55c-119.14,22.54 -221.51,-79.82 -198.97,-198.97 12.59,-66.57 66.25,-120.23 132.82,-132.82 119.14,-22.54 221.51,79.82 198.97,198.97 -12.59,66.56 -66.25,120.25 -132.82,132.82z"/>
    </g>
    <g>
     <path class="fil2" d="M5362.89 3098.41l-1180.2 0c-58.26,0 -105.52,-47.23 -105.52,-105.52l0 -877.7c0,-58.26 47.25,-105.52 105.52,-105.52l1180.2 0.01c58.29,0 105.52,47.25 105.52,105.52l0 877.7c-0.01,58.28 -47.26,105.51 -105.52,105.51z"/>
     <g>
      <g>
       <g>
        <path class="fil5" d="M4537.86 2737.04c-8.31,0 -16.62,-3.39 -22.97,-10.19l-146.63 -156.92c-12.7,-13.57 -12.7,-35.59 0,-49.16l149.12 -159.57c12.7,-13.57 33.26,-13.57 45.93,0 12.7,13.57 12.7,35.59 0,49.16l-126.15 134.99 123.67 132.37c12.7,13.57 12.7,35.59 0,49.16 -6.35,6.75 -14.66,10.16 -22.97,10.16z"/>
       </g>
       <g>
        <path class="fil5" d="M5007.66 2737.04c-8.31,0 -16.62,-3.39 -22.97,-10.19 -12.7,-13.57 -12.7,-35.59 0,-49.16l123.69 -132.37 -126.18 -134.99c-12.7,-13.57 -12.7,-35.59 0,-49.16 12.67,-13.57 33.23,-13.57 45.93,0l149.15 159.57c6.09,6.51 9.53,15.35 9.53,24.58 0,9.23 -3.41,18.07 -9.53,24.58l-146.66 156.92c-6.35,6.81 -14.65,10.22 -22.96,10.22z"/>
       </g>
      </g>
      <g>
       <path class="fil5" d="M4699.97 2780.15c-4.05,0 -8.2,-0.82 -12.22,-2.59 -16.62,-7.22 -24.61,-27.52 -17.86,-45.3l145.55 -382.67c6.77,-17.75 25.61,-26.38 42.33,-19.1 16.62,7.22 24.61,27.52 17.86,45.3l-145.55 382.67c-5.13,13.51 -17.27,21.69 -30.11,21.69z"/>
      </g>
     </g>
    </g>
    <g>
     <g>
      <path class="fil5" d="M6428.26 3307.62l-2928.36 0 0 -89.88c0,-24.26 19.66,-43.92 43.89,-43.92l2840.52 0c24.26,0 43.92,19.66 43.92,43.92l0 89.88 0.03 0z"/>
      <path class="fil6" d="M6346.48 4868.82l-2764.79 0c-45.16,0 -81.76,-36.62 -81.76,-81.76l0 -1479.42 2928.33 0 0 1479.42c0,45.14 -36.62,81.76 -81.78,81.76z"/>
      <g>
       <g>
        <path class="fil2" d="M6287.69 3240.73c0,11.38 -9.21,20.58 -20.58,20.58 -11.38,0 -20.58,-9.21 -20.58,-20.58 0,-11.38 9.21,-20.58 20.58,-20.58 11.37,0 20.58,9.2 20.58,20.58z"/>
        <path class="fil2" d="M6146.19 3240.73c0,11.38 -9.21,20.58 -20.58,20.58 -11.38,0 -20.58,-9.21 -20.58,-20.58 0,-11.38 9.21,-20.58 20.58,-20.58 11.37,0 20.58,9.2 20.58,20.58z"/>
        <path class="fil2" d="M6004.66 3240.73c0,11.38 -9.21,20.58 -20.58,20.58 -11.38,0 -20.58,-9.21 -20.58,-20.58 0,-11.38 9.21,-20.58 20.58,-20.58 11.37,0 20.58,9.2 20.58,20.58z"/>
       </g>
      </g>
      <path class="fil4" d="M5277.82 3518.6l-1626.1 0c-15.64,0 -28.31,-12.67 -28.31,-28.31l0 0c0,-15.64 12.67,-28.31 28.31,-28.31l1626.1 0c15.64,0 28.31,12.67 28.31,28.31l0 0c-0.02,15.63 -12.7,28.31 -28.31,28.31z"/>
      <path class="fil4" d="M5277.82 3698.73l-1626.1 0c-15.64,0 -28.31,-12.67 -28.31,-28.31l0 0c0,-15.64 12.67,-28.31 28.31,-28.31l1626.1 -0.01c15.64,0 28.31,12.67 28.31,28.31l0 0c-0.02,15.64 -12.7,28.32 -28.31,28.32z"/>
      <path class="fil4" d="M4502.07 3878.83l-850.35 0c-15.64,0 -28.31,-12.67 -28.31,-28.31l0 0c0,-15.64 12.67,-28.31 28.31,-28.31l850.35 0c15.64,0 28.31,12.67 28.31,28.31l0 0c0,15.63 -12.68,28.31 -28.31,28.31z"/>
      <path class="fil2" d="M5277.82 4239.03l-1626.1 0c-15.64,0 -28.31,-12.67 -28.31,-28.31l0 0c0,-15.64 12.67,-28.31 28.31,-28.31l1626.1 0c15.64,0 28.31,12.67 28.31,28.31l0 0c-0.02,15.64 -12.7,28.31 -28.31,28.31z"/>
      <path class="fil2" d="M4502.07 4419.13l-850.35 0c-15.64,0 -28.31,-12.67 -28.31,-28.31l0 0c0,-15.64 12.67,-28.31 28.31,-28.31l850.35 0c15.64,0 28.31,12.67 28.31,28.31l0 0c0,15.64 -12.68,28.31 -28.31,28.31z"/>
      <path class="fil4" d="M4502.07 4599.23l-850.35 0c-15.64,0 -28.31,-12.67 -28.31,-28.31l0 0c0,-15.64 12.67,-28.31 28.31,-28.31l850.35 0c15.64,0 28.31,12.67 28.31,28.31l0 0c0,15.64 -12.68,28.31 -28.31,28.31z"/>
      <path class="fil5" d="M5277.82 3878.83l-611.08 0c-15.64,0 -28.31,-12.67 -28.31,-28.31l0 0c0,-15.64 12.67,-28.31 28.31,-28.31l611.08 0c15.64,0 28.31,12.67 28.31,28.31l0 0c-0.02,15.63 -12.7,28.31 -28.31,28.31z"/>
      <path class="fil2" d="M6084.99 3474.39l-432.09 432.09c-11.06,11.06 -28.97,11.06 -40.03,0l0 0c-11.06,-11.06 -11.06,-28.97 0,-40.03l432.09 -432.09c11.06,-11.06 28.97,-11.06 40.03,0l0 0c11.06,11.05 11.06,28.97 0,40.03z"/>
      <circle class="fil2" transform="matrix(0.2307 -9.73E-001 0.973 0.2307 5848.74 4291.93)" r="254.79"/>
      <path class="fil4" d="M5815.59 4469.35c0,79.67 -64.58,144.25 -144.25,144.25 -79.67,0 -144.25,-64.58 -144.25,-144.25 0,-79.67 64.58,-144.25 144.25,-144.25 79.69,0 144.25,64.58 144.25,144.25z"/>
     </g>
     <g>
      <polygon class="fil6" points="3499.9,4710.84 3499.9,5225.98 3973.38,4752.51 "/>
     </g>
    </g>
    <g>
     <polygon class="fil7" points="2995.95,5365.26 4034.76,5365.26 4410.41,6088.26 3371.61,6088.26 "/>
     <path class="fil5" d="M3392.61 6034.78l-311.04 -598.65c-6.54,-12.54 2.59,-27.54 16.72,-27.54l898.69 0.01c7.04,0 13.49,3.92 16.72,10.16l311.04 598.65c6.54,12.54 -2.59,27.54 -16.72,27.54l-898.68 -0.01c-7.01,0 -13.47,-3.91 -16.73,-10.16z"/>
     <rect class="fil8" x="3371.6" y="6088.26" width="841.35" height="96.52"/>
     <path class="fil9" d="M4935.77 6088.26l-830.24 0c-26.64,0 -48.26,21.59 -48.26,48.26l0 0c0,26.64 21.62,48.26 48.26,48.26l830.24 0c26.64,0 48.26,-21.59 48.26,-48.26l0 0c0,-26.65 -21.62,-48.26 -48.26,-48.26z"/>
     <path class="fil8" d="M3371.61 6088.26l-375.66 -723 -18.81 14.13c-12.17,9.13 -15.9,25.72 -8.81,39.18l403.3 766.21 0 -96.52 -0.02 0z"/>
     <rect class="fil9" x="3657.2" y="6133.29" width="92.63" height="16.06"/>
     <rect class="fil9" x="3773.62" y="6133.29" width="92.63" height="16.06"/>
     <rect class="fil9" x="3890.04" y="6133.29" width="92.63" height="16.06"/>
    </g>
    <g>
     <path class="fil6" d="M5265.52 7503.38c0,0 -861.67,670.88 -998.33,841.32 -51.54,64.53 -141.42,177.59 -234.53,293.42 -152.9,190.34 -315.09,388.73 -334.35,393.49 -30.74,7.81 -289.32,-189.04 -297.13,-231.48 -4.76,-26.43 230.64,-430.5 434.42,-755.36 124.09,-197.51 236.27,-365.97 275.67,-402.35 104.17,-96.57 745.17,-436.14 745.17,-436.14l409.08 297.1z"/>
     <path class="fil10 str0" d="M3621.16 8888.47c0,0 804.99,-1145.8 1209.12,-1338.79"/>
     <path class="fil11" d="M6163.57 4561.24c-9.1,20.8 -19.5,42.44 -31.19,64.53 -63.02,120.41 -16.46,241.04 -88.34,271.78 -4.34,1.75 -9.1,3.47 -14.5,4.55 -92.68,20.56 -306.2,-102.87 -315.52,-164.6 -9.31,-61.73 65.83,-167.4 0,-180.18 -65.83,-12.78 -101.34,97.9 -101.34,97.9 -54.13,5.64 -73.42,-85.12 -162.19,-85.12 -12.57,0 -24.9,1.75 -36.8,4.76 -41.8,10.4 -78.4,36.17 -101.79,56.09 -17.33,14.5 -27.28,25.98 -27.28,25.98 0,0 -79.03,-50.03 -75.35,-148.56 6.27,-156.13 63.87,-270.03 202.7,-293.21 15.37,-173.67 158.3,-266.36 349.3,-272.2 167.4,-5.19 192.51,145.31 196.43,182.77 -1.51,-27.94 -9.31,-119.75 -49.16,-182.77 83.79,-3.68 157.67,56.09 138.38,250.98 19.29,-58.02 86.84,-94.64 138.83,-52.2 -48.07,0 -94.43,80.99 -94.43,80.99 0,0 56.52,36.17 95.06,103.08 31.99,55.28 19.87,136.9 -22.81,235.43z"/>
     <path class="fil12" d="M6044.03 4897.55l-2.17 28.58 -7.36 101.34c0,0 -154.17,131.89 -241.67,0 -0.66,-0.87 -1.08,-1.75 -1.96,-2.59 -27.07,-40.27 -51.54,-54.35 -73.85,-56.96 -48.29,-5.85 -87.26,41.35 -127.56,-9.74 -115.2,-146.18 -161.13,-315.52 -175.84,-383.3 11.91,-3.04 24.26,-4.76 36.8,-4.76 88.79,0 108.06,90.73 162.19,85.12 0,0 35.51,-110.65 101.34,-97.9 65.83,12.78 -9.31,118.45 0,180.18 4.13,27.52 48.95,67.36 105.67,101.12 66.04,39.63 148.35,71.04 200.53,64.96 3.25,-0.42 6.27,-0.87 9.31,-1.51 5.47,-1.07 10.23,-2.79 14.57,-4.54z"/>
     <path class="fil13" d="M6068.08 5086.17c-69.51,47.41 -196.85,55.22 -196.85,55.22l-104.17 -15.37c0,0 -43.52,-63.24 -23.18,-98.53 3.89,-6.93 13.65,-16.46 27.52,-27.73 27.94,-22.97 72.97,-52.41 119.54,-76.65 48.07,-24.9 97.66,-44.61 133.4,-46.78 87.48,-4.97 113.25,162.22 43.74,209.84z"/>
     <path class="fil4" d="M6047.5 6775.33c-155.05,29.87 -483.13,-61.52 -640.13,-132.11 -46.33,-20.8 -77.97,-39.85 -85.54,-53.26 -30.11,-53.05 0.21,-93.77 74.93,-262.26 8.44,-19.05 17.33,-39.63 26.86,-61.94 50.67,-119.33 50.88,-373.78 50.67,-593.14 -0.66,-187.75 -1.51,-349.73 28.36,-378.54 64.74,-62.36 387.85,-266.57 387.85,-266.57l64.32 335.23c0,0 36.38,170.21 74.72,392.4 70.58,409.05 148.11,995.05 17.96,1020.19z"/>
     <path class="fil6" d="M6155.55 6924.53c0,15.37 -154.41,375.5 -283.9,427.04 -129.49,51.54 -909.96,-5.19 -909.96,-5.19l-385.89 252.28 80.78 760.12 56.3 529.7 1.72 17.12c-118.03,77.1 -415.34,97.87 -447.41,31.41 -0.21,-0.21 -0.21,-0.42 -0.21,-0.42 -30.96,-66.91 -504.35,-1492.28 -318.98,-1739.37 185.16,-246.88 1373.82,-607.22 1373.82,-607.22 30.96,19.71 66.91,37.47 106.1,53.26 132.11,54.13 299.93,88.13 427.7,108.06 49.16,7.57 92.26,13.2 125.17,17.12 41.59,4.97 66.7,6.93 66.7,6.93 0,0 108.06,133.55 108.06,149.16z"/>
     <path class="fil14" d="M4763.55 9402.14l-1003.51 0c-4.97,-17.75 1.72,-35.75 16.88,-53.92 40.72,-48.95 142.72,-98.11 241.04,-140.55 93.35,-40.27 182.99,-74.93 213.1,-98.74 70.8,-56.09 38.1,-165.23 36.17,-171.95 10.82,22.3 51.75,34.87 105.89,38.55 106.34,7.57 263.34,-18.84 341.5,-69.96l-1.72 -17.12c29.87,57.18 43.95,339.78 48.74,459.74 1.25,33.15 1.91,53.95 1.91,53.95z"/>
     <path class="fil15" d="M4373.08 8975.52c-3.04,47.86 -9.95,125.39 -23.81,146.18 -20.56,30.98 -241.88,139.04 -272.65,128.64 -19.92,-6.48 -44.19,-28.15 -58.68,-42.65 93.35,-40.27 182.99,-74.93 213.1,-98.74 70.8,-56.09 38.1,-165.23 36.17,-171.95 10.81,22.28 51.74,34.85 105.87,38.52z"/>
     <path class="fil15" d="M4763.55 9402.14l-1003.51 0c-4.97,-17.75 1.72,-35.75 16.88,-53.92l984.68 -0.01c1.29,33.13 1.95,53.93 1.95,53.93z"/>
     <path class="fil14" d="M3698.31 9031.61c0,0 -76.23,200.98 -142.27,307.29 -26.19,42.44 -51.12,69.96 -68.66,63.24 -61.73,-23.18 -681.94,-550.49 -622.59,-589.04 8.65,-5.64 22.52,-9.53 39.85,-11.69 53.92,-6.93 143.35,0.64 226.09,9.1 71.04,7.36 137.08,15.37 171.5,15.37 87.5,0 98.95,-25.77 98.95,-25.77 1.96,10.19 18.42,29.45 42.86,52.84 76.69,72.75 230.89,184.51 254.27,178.66z"/>
     <path class="fil15" d="M3444.08 8852.94c-131.45,87.05 -268.53,34.63 -295.59,14.71 -19.92,-14.5 -19.92,-41.59 -17.75,-57.18 71.04,7.36 137.08,15.37 171.5,15.37 87.5,0 98.95,-25.77 98.95,-25.77 1.96,10.22 18.41,29.48 42.89,52.87z"/>
     <path class="fil15" d="M3556.02 9338.9c-26.19,42.44 -51.12,69.96 -68.66,63.24 -61.73,-23.18 -681.94,-550.49 -622.59,-589.04 8.65,-5.64 22.52,-9.53 39.85,-11.69l651.4 537.49z"/>
     <path class="fil12" d="M5407.79 6118.5c-48.5,67.57 -135.33,170.66 -206.8,160.26 -2.59,-0.42 -5.42,-0.87 -8.89,-1.51 -136.42,-24.05 -938.77,-225.21 -976.66,-232.81 -38.55,-7.57 -308.58,-10.19 -293.21,-38.55 15.37,-28.36 169.78,-118.24 210.93,-116.07 41.14,2.17 203.36,49.16 365.34,43.97 162.19,-4.97 586.66,0 586.66,0l20.58 -35.51 30.32 -52.41c-8.49,157.22 181,285.41 271.73,272.63z"/>
     <path class="fil10 str0" d="M5407.79 6704.47c0,0 -36.96,196.82 107.08,262.44"/>
     <path class="fil10 str0" d="M5332.17 6862.72c0,0 -953.11,406.53 -998.86,532.61 -45.75,126.07 242.46,1493.15 242.46,1493.15"/>
     <path class="fil16" d="M6155.55 6924.53c0,15.37 -154.41,375.5 -283.9,427.04 -129.49,51.54 -909.96,-5.19 -909.96,-5.19l-385.89 252.28 80.78 760.12c0,0 -163.06,-868.18 -163.06,-924.9 0,-48.5 1078.02,-358.4 1362.13,-682.57 111.31,17.54 191.88,24.05 191.88,24.05 0,0 108.02,133.56 108.02,149.17z"/>
     <path class="fil13" d="M5647.31 6003.3c-66.91,94.85 -174.76,215.27 -250.56,324.41 8.44,-19.05 17.33,-39.63 26.86,-61.94 50.67,-119.33 50.88,-373.78 50.67,-593.14l231.06 -152.9c0,-0.01 50.03,330.46 -58.03,483.57z"/>
     <path class="fil17" d="M5450.02 6089.26c-9.95,9.1 -20.13,18.18 -30.32,26.64 -3.68,1.3 -7.57,2.17 -11.91,2.59 -90.73,12.78 -280.22,-115.44 -271.78,-272.65 0.66,-11.69 9.95,-35.08 25.11,-65.62 77.52,-156.34 310.75,-504.35 353.64,-488.34 0,0 149.86,23.18 190.58,227.81 38.12,192.12 -99.41,425.14 -255.32,569.57z"/>
     <path class="fil13" d="M5980.8 6768.4c-32.91,-3.89 -76.01,-9.53 -125.17,-17.12 -127.77,-19.92 -295.59,-53.92 -427.7,-108.06 116.5,-4.13 365.76,-80.78 395.87,-651.4 13.65,106.76 34.21,217.41 62.81,330.68 38.33,150.51 74.47,309.24 94.19,445.9z"/>
     <path class="fil13" d="M5919.31 4886.1c-11.91,13.86 -21.22,26.41 -28.36,37.04 -46.57,24.26 -91.6,53.71 -119.54,76.65 -19.5,-21.43 -37.47,-29.9 -54.35,-31.83l102.66 -129.28c31.14,18.81 66.01,35.48 99.59,47.42z"/>
     <path class="fil13" d="M5407.79 6118.5c-48.5,67.57 -135.33,170.66 -206.8,160.26 -2.59,-0.42 -5.42,-0.87 -8.89,-1.51 -88.34,-127.77 -91.6,-295.17 -86.41,-378.96l30.32 -52.41c-8.44,157.21 181.05,285.4 271.78,272.62z"/>
     <path class="fil13" d="M6163.57 4561.24c-9.1,20.8 -19.5,42.44 -31.19,64.53 -30.98,59.11 -35.3,118.03 -40.51,166.74 -10.4,-8.02 -21.01,-15.37 -31.62,-21.67 -66.91,39.85 -111.97,81.2 -140.97,115.2l-0.21 0.21c-94.43,-33.79 -198.57,-106.1 -205.08,-148.78 -9.31,-61.73 65.83,-167.4 0,-180.18 -65.83,-12.78 -101.34,97.9 -101.34,97.9 -54.13,5.64 -73.42,-85.12 -162.19,-85.12 -12.57,0 -24.9,1.75 -36.8,4.76 -41.8,10.4 -78.4,36.17 -101.79,56.09 0,0 100.04,-140.55 257.04,-112.18 0,0 -22.97,-43.74 -128.64,-38.55 221.32,-72.1 362.72,-43.74 430.95,35.96 55.65,65.23 186.25,145.79 292.35,45.09z"/>
    </g>
    <g>
     <path class="fil8" d="M6613.57 7598.66l-772.02 0c0,0 612.43,-180.18 612.43,-1394.62 0,-15.58 0,-30.96 -0.21,-46.36 -6.27,-811.64 -179.73,-1259.26 -393.49,-1386.81 66.91,-39.63 155.92,-77.52 273.5,-103.74 51.33,-11.69 107.84,-21.01 170.44,-27.49 528.61,-53.92 950.89,153.33 1001.13,387.85 50.03,234.53 -259,2571.17 -891.78,2571.17z"/>
     <path class="fil7" d="M6453.98 6204.04c0,1214.44 -612.43,1394.62 -612.43,1394.62l-1265.77 0 52.63 -37.47 333.29 -214.81 668.95 -46.33c35.96,-149.2 133.83,-154.2 283.05,-169.78 86.84,-8.89 95.28,-155.5 68.87,-349.3 -19.26,-139.46 -56.52,-303.4 -95.94,-458.44 -28.58,-113.27 -49.16,-223.92 -62.81,-330.68 -16.25,-124.96 -23.39,-244.26 -24.02,-356.66 -1.96,-255.96 29.24,-474.69 62.15,-632.78 3.04,-15.37 6.27,-30.11 9.53,-44.19 0,-0.42 0.21,-1.08 0.21,-1.51 3.04,-6.72 16.25,-34 47.44,-70.38l0.21 -0.21c29.02,-34 74.06,-75.35 140.97,-115.2 10.61,6.27 21.22,13.65 31.62,21.67 199.02,151.58 355.81,594.02 361.87,1365.17 0.18,15.32 0.18,30.69 0.18,46.28z"/>
     <path class="fil8" d="M6209.71 9402.14l-911.27 0c-31.19,0 -44.82,-39.42 -20.13,-58.68l228.02 -178.44c101.12,-79.27 160.26,-200.74 160.26,-329.17l0 -1237.19 174.96 0 0 1237.19c0,128.43 59.11,249.9 160.47,329.17l227.81 178.44c24.7,19.25 11.05,58.68 -20.12,58.68z"/>
     <g>
      <g>
       <path class="fil18 str1" d="M6904.72 4686.26c0,0 6.64,17.01 17.54,51.09"/>
       <path class="fil18 str2" d="M6952.93 4842.73c30.96,116.1 71.2,296.97 103.13,543.11 82.87,639.1 -1.3,1536.12 -557.03,2104.36"/>
       <path class="fil18 str1" d="M6459.8 7528.99c-12.99,12.44 -26.25,24.71 -39.74,36.8"/>
      </g>
     </g>
     <path class="fil16" d="M5841.55 7598.66l0 337.82c-60.64,31.62 -122.13,55.88 -174.97,73.63l0 -411.45 174.97 0z"/>
     <path class="fil16" d="M6083.45 7073.72c-41.14,128.64 -298.19,105.6 -329.38,200.74 -66.17,201.88 -102.87,113.03 -357.32,138.8 -145.52,14.74 -251.2,108.06 -314.88,185.37l-506.09 0 52.63 -37.47 333.29 -214.78 668.95 -46.33c35.96,-149.2 133.83,-154.2 283.05,-169.78 86.84,-8.89 95.28,-155.5 68.87,-349.3 -19.26,-139.46 -56.52,-303.4 -95.94,-458.44 -28.58,-113.27 -49.16,-223.92 -62.81,-330.68 -16.25,-124.96 -23.39,-244.26 -24.02,-356.66 98.92,515.8 314.19,1343.26 283.65,1438.53z"/>
     <path class="fil16" d="M6453.98 6204.04c0,-15.58 0,-30.96 -0.21,-46.36 -6.27,-811.64 -179.73,-1259.26 -393.49,-1386.81 66.91,-39.63 155.92,-77.52 273.5,-103.74 -35.3,50.88 -72.1,127.34 -54.8,208.97 30.98,144.44 380.92,700.11 247.09,1590.38 -96.57,642.3 -64.53,976.44 36.38,1132.15l-720.9 0c0,0.03 612.43,-180.15 612.43,-1394.59z"/>
    </g>
    <path class="fil13" d="M2036.89 5542.47c-0.42,28.15 -3.04,54.8 -8.23,78.4l-248.39 0c-72.97,-48.5 -192.09,-144.44 -263.55,-288.45 66.49,72.34 179.97,160.47 295.59,187.33 100.94,23.36 176.08,13.41 224.58,22.72z"/>
    <g>
     <path class="fil4" d="M2613.79 4556.27c-27.73,100.7 -154.83,296.04 -270.91,505.22 -126.89,228.26 -240.37,472.73 -195.98,628.02 11.03,38.97 16.03,67.57 16.03,88.13 0.42,67.57 -50.88,46.57 -102.66,8.23 -52.84,-39.21 -106.34,-96.36 -106.34,-96.36l3.89 -301.02c0,0 -170.66,-156.79 -30.53,-499.82 8.89,-21.64 19.05,-44.19 30.53,-67.57 192.96,-389.81 482.26,-798.88 208.33,-914.74 378.34,-23.14 505.69,439.19 447.64,649.91z"/>
     <g>
      <path class="fil19" d="M2166.17 3906.4c70.86,15.43 132.61,62.92 171.77,123.51 10.58,14.79 18.04,31.38 26.43,47.44 6.32,16.93 14.37,33.39 18.68,51.01 5.05,17.41 10,34.87 12.57,52.86l4.71 26.78 1.69 27.36c-1.51,73.24 -24.79,143.19 -48.92,211.08 -25.21,67.84 -54.32,134.09 -84.4,199.79 -60.25,131.34 -125.2,260.38 -182.51,392.56 -28.36,66.12 -55.59,132.93 -75.7,201.59 -10.27,34.24 -17.99,69.11 -22.52,104.06 -4.39,34.82 -4.07,70.64 7.04,102.24l0.11 0.29c1.98,5.64 -0.98,11.83 -6.61,13.81 -5.64,1.98 -11.83,-0.98 -13.81,-6.61 0,-0.03 -0.03,-0.13 -0.05,-0.16 -12.44,-37.09 -11.72,-75.62 -6.8,-112.02 5.16,-36.54 13.63,-72.28 24.5,-107.05 21.4,-69.69 49.66,-136.55 79,-202.67 59.24,-132.05 125.78,-260.24 187.56,-390.6 30.85,-65.19 60.7,-130.86 86.6,-198.04 24.87,-67.18 48.76,-136.47 51.12,-208.25l-1.3 -26.7 -4.34 -26.59c-2.33,-17.86 -7.01,-35.22 -11.77,-52.55 -4.02,-17.54 -11.83,-33.89 -17.86,-50.8 -8.1,-16.01 -15.32,-32.57 -25.61,-47.36 -38.17,-60.56 -98.94,-108.66 -169.58,-124.98z"/>
     </g>
     <path class="fil17" d="M2440.11 5164.57c-115.65,304.91 0,536.18 -173.67,569.12 -79.48,15.16 -114.56,-43.74 -129.06,-112.18 -17.33,-80.99 -5.85,-175.18 -5.85,-175.18 0,0 29.45,-75.35 91.39,-148.56 50.45,-59.57 122.13,-117.62 217.19,-133.2z"/>
     <path class="fil8" d="M2036.89 5542.47c-0.66,71.04 -16.67,131.23 -49.58,162.85 -3.25,3.25 -6.51,6.06 -9.53,8.44 -82.07,66.49 -134.49,-55.22 -134.49,-55.22 0,0 -218.28,-107.63 -326.58,-326.13 -82.95,-167.83 -101.34,-401.27 93.77,-701.41 28.58,213.73 145.73,359.28 261.81,497.44 0,0.21 0,0.21 0,0.21 14.5,17.33 28.81,34.21 43.1,51.33 80.36,96.32 122.58,244.46 121.5,362.49z"/>
     <g>
      <path class="fil19" d="M1610.41 4631.01c-18.89,91.92 -23.44,186.64 -14.71,279.72 9.84,92.76 35.37,185 85.75,263.55 48.5,79.85 115.86,145.63 176.95,217.43 30.4,36.01 59.61,74.22 80.06,118.14 20.72,43.66 30.16,93.32 26.22,142 -0.48,5.95 -5.72,10.4 -11.67,9.92 -5.95,-0.48 -10.4,-5.72 -9.92,-11.67 0,-0.05 0.03,-0.16 0.03,-0.21 4.45,-45.03 -3.23,-90.65 -21.93,-132.21 -18.44,-41.75 -45.98,-79.48 -75.3,-115.6 -58.9,-72.07 -125.92,-140.02 -173.7,-222.17 -49.77,-81.02 -73.82,-175.21 -81.89,-268.66 -6.96,-93.87 -0.56,-188.67 20.11,-280.24z"/>
     </g>
     <g>
      <path class="fil13" d="M2440.19 5164.57c-33.15,38.36 -64,78.66 -93.5,119.8 -29.26,41.3 -57.31,83.5 -82.42,127.34 -50.09,87.26 -92.68,180.87 -106.68,279.27l-0.05 0.37c-0.85,5.93 -6.32,10.05 -12.25,9.21 -5.93,-0.85 -10.05,-6.32 -9.21,-12.25 0.03,-0.11 0.05,-0.26 0.05,-0.4 18.44,-102.74 65.33,-195.53 118.85,-281.78 26.86,-43.26 56.54,-84.61 87.34,-124.99 31.04,-40.18 63.37,-79.4 97.87,-116.57z"/>
     </g>
     <path class="fil8" d="M2369.95 5697.07l-74.06 454.77c-3.68,19.05 -20.35,32.91 -39.85,32.91l-461.48 0c-19.5,0 -36.17,-13.86 -39.85,-32.91l-60.19 -369.23 -13.86 -85.54c-4.55,-24.9 14.5,-47.86 39.85,-47.86l609.59 0c25.35,0.02 44.4,22.96 39.85,47.86z"/>
     <path class="fil7" d="M2440.11 5789.78l-829.62 0 21.88 -123.88c4.76,-25.98 27.28,-45.03 53.71,-45.03l678.68 0c26.19,0 48.95,19.05 53.5,45.03l21.85 123.88z"/>
     <path class="fil13" d="M2131.53 5446.3c0,0 -11.48,93.77 5.64,174.55l-108.51 -0.01c5.19,-23.6 7.81,-50.24 8.23,-78.4 1.08,-118.03 -41.14,-266.14 -121.5,-362.51 -14.29,-17.12 -28.58,-34 -43.1,-51.33 0,0 0,0 0,-0.21 1.75,-66.49 16.88,-146.18 55.01,-239.74 6.27,109.35 33.13,299.51 142.27,319.64 82.95,15.16 191,-67.12 273.29,-146.82 -43.52,78.18 -85.33,158.3 -119.96,236.27 -61.92,73.21 -91.37,148.56 -91.37,148.56z"/>
     <path class="fil13" d="M2070.02 6184.78l-275.46 0c-19.5,0 -36.17,-13.86 -39.85,-32.91l-59.11 -362.08 238 -0.01c-5.85,50.67 -12.99,145.31 4.97,218.73 14.08,58.24 65.19,133.17 131.45,176.27z"/>
    </g>
    <g>
     <path class="fil6" d="M4156.86 2438.89l-1180.2 0c-58.26,0 -105.52,-47.25 -105.52,-105.52l0 -877.73c0,-58.26 47.25,-105.52 105.52,-105.52l1180.2 0.01c58.29,0 105.52,47.25 105.52,105.52l0 877.73c0,58.25 -47.23,105.51 -105.52,105.51z"/>
     <g>
      <path class="fil5" d="M3195.05 1735.23l0 117.18c0,9.39 7.62,16.99 16.99,16.99l64.87 0c9.39,0 16.99,-7.62 16.99,-16.99l0 -117.18c0,-9.39 7.62,-16.99 16.99,-16.99l6.27 0c9.39,0 16.99,7.62 16.99,16.99l0 318.56c0,9.39 -7.62,16.99 -16.99,16.99l-6.27 -0.01c-9.39,0 -16.99,-7.62 -16.99,-16.99l0 -130.78c0,-9.39 -7.62,-16.99 -16.99,-16.99l-64.87 0c-9.39,0 -16.99,7.62 -16.99,16.99l0 130.78c0,9.39 -7.62,16.99 -16.99,16.99l-6.29 0c-9.39,0 -16.99,-7.62 -16.99,-16.99l0 -318.56c0,-9.39 7.62,-16.99 16.99,-16.99l6.29 0.01c9.37,0 16.99,7.59 16.99,16.99z"/>
      <path class="fil5" d="M3421.19 1754.33l-30.35 0c-9.39,0 -16.99,-7.62 -16.99,-16.99l0 -2.12c0,-9.39 7.62,-16.99 16.99,-16.99l134.94 0.01c9.39,0 16.99,7.62 16.99,16.99l0 2.12c0,9.39 -7.62,16.99 -16.99,16.99l-30.35 -0.01c-9.39,0 -16.99,7.62 -16.99,16.99l0 282.47c0,9.39 -7.62,16.99 -16.99,16.99l-6.29 -0.01c-9.39,0 -16.99,-7.62 -16.99,-16.99l0 -282.47c0.01,-9.36 -7.59,-16.98 -16.98,-16.98z"/>
      <path class="fil5" d="M3793.27 1919.09c-2.62,-46.57 -5.24,-98.35 -3.65,-138.09l-2.09 0c-7.86,39.21 -17.28,81.07 -28.26,122.4l-43.42 165.29 -25.63 -0.01 -41.33 -158.49c-11.51,-44.98 -21.96,-88.4 -28.76,-129.2l-1.56 0.01c0,41.33 -2.12,90.49 -4.18,140.71l-6.06 132.85c-0.42,9.08 -7.88,16.22 -16.99,16.22l-1.82 -0.01c-9.79,0 -17.54,-8.23 -16.96,-17.99l18.89 -318.56c0.53,-8.97 7.96,-15.98 16.96,-15.98l14.21 0c7.75,0 14.53,5.27 16.46,12.78l38.07 148.33c12.01,46.57 20.93,81.07 28.23,121.36l1.56 0c6.8,-40.3 14.66,-73.77 26.17,-121.36l36.57 -148.19c1.88,-7.59 8.68,-12.94 16.51,-12.94l15.6 -0.01c9,0 16.46,7.04 16.96,16.01l18.42 318.56c0.56,9.76 -7.2,17.97 -16.96,17.97l-3.47 -0.01c-9.08,0 -16.54,-7.12 -16.99,-16.17l-6.48 -135.48z"/>
      <path class="fil5" d="M3910.09 1718.24l6.29 0c9.39,0 16.99,7.62 16.99,16.99l0 284.56c0,9.39 7.62,16.99 16.99,16.99l65.38 -0.01c9.39,0 16.99,7.62 16.99,16.99l0 0c0,9.39 -7.62,16.99 -16.99,16.99l-105.65 -0.01c-9.39,0 -16.99,-7.62 -16.99,-16.99l0 -318.56c-0.03,-9.36 7.59,-16.95 16.99,-16.95z"/>
     </g>
    </g>
    <g>
     <g>
      <g>
       <path class="fil6" d="M4694.89 1443.39c44.16,0 54.58,-29.71 54.58,-56.2 0,-23.28 -2.41,-45.77 -4.82,-68.24 -2.41,-24.08 -4.82,-45.77 -4.82,-70.67 0,-72.26 44.16,-102.76 101.18,-102.76l9.64 0 0 41.75 -12.03 0c-33.73,0 -47.39,24.1 -47.39,60.22 0,21.7 2.43,41.75 4.82,61.04 1.61,20.88 4,40.14 4,59.43 0.79,62.63 -20.88,84.3 -55.4,93.95l0 1.61c34.53,10.45 56.2,32.12 55.4,95.54 0,20.08 -2.41,40.14 -4,60.22 -2.41,20.08 -4.82,40.16 -4.82,61.83 0,36.14 12.04,61.01 48.18,61.01l11.24 0.01 0 41.75 -10.45 0c-53,0 -100.36,-26.48 -100.36,-102.76 0,-24.08 2.43,-48.18 4.82,-71.46 2.41,-23.28 4.82,-46.57 4.82,-69.06 0,-25.69 -10.45,-57.02 -54.58,-57.02l-0.01 -40.19z"/>
       <path class="fil6" d="M5513.44 1483.55c-44.16,0 -54.58,31.33 -54.58,57.02 0,22.49 2.41,45.77 4.82,69.06 2.41,23.28 4.82,47.36 4.82,71.46 0,76.28 -47.39,102.76 -100.36,102.76l-10.46 0.01 0 -41.75 11.24 0c36.14,-4.02 48.18,-24.9 48.18,-61.01 0,-21.67 -2.41,-41.75 -4.02,-61.83 -2.41,-20.08 -4.82,-40.14 -4.82,-60.22 -0.79,-63.42 20.88,-85.12 55.4,-95.54l0 -1.61c-34.53,-9.63 -56.2,-31.3 -55.4,-93.95 0,-19.26 2.41,-38.55 4.82,-59.43 1.61,-19.26 4.02,-39.34 4.02,-61.04 0,-36.12 -13.68,-56.2 -47.39,-60.22l-12.03 -0.01 0 -41.75 9.63 0c56.99,0 101.18,30.51 101.18,102.76 0,24.87 -2.41,46.57 -4.82,70.67 -2.41,22.49 -4.82,44.95 -4.82,68.24 0,26.48 10.45,56.2 54.58,56.2l0.01 40.18z"/>
      </g>
     </g>
     <polygon class="fil2" points="5237.93,1541.92 5237.93,1387.46 5104.15,1310.23 4970.4,1387.46 4970.4,1541.92 5104.15,1619.13 "/>
    </g>
    <g>
     <path class="fil2" d="M6244.29 2311.49c-125.7,-62.6 -276.94,-37.89 -376.32,61.49 -122.66,122.66 -126.74,319.27 -12.96,447.3l-49.03 -5.82c-5.93,-0.71 -11.32,3.52 -12.04,9.47 -0.71,5.95 3.55,11.32 9.47,12.04l74.69 8.86c2.96,0.37 5.79,-0.53 7.99,-2.25 2.17,-1.72 3.7,-4.26 4.05,-7.22l8.6 -72.26c0.71,-5.95 -3.52,-11.32 -9.47,-12.04 -5.95,-0.71 -11.32,3.55 -12.04,9.47l-5.48 46.01c-106.84,-119.51 -103.21,-303.53 11.51,-418.28 92.76,-92.76 233.97,-115.86 351.34,-57.44 5.34,2.7 11.85,0.48 14.53,-4.87 2.7,-5.31 0.51,-11.79 -4.84,-14.46z"/>
     <path class="fil2" d="M5963.17 2910.74c125.7,62.6 276.94,37.89 376.32,-61.49 122.66,-122.66 126.76,-319.27 12.96,-447.3l49.03 5.82c5.95,0.71 11.32,-3.55 12.04,-9.47 0.71,-5.95 -3.55,-11.32 -9.47,-12.04l-74.69 -8.89c-2.96,-0.34 -5.79,0.53 -7.96,2.25 -2.17,1.72 -3.7,4.26 -4.05,7.22l-8.6 72.26c-0.71,5.93 3.52,11.32 9.47,12.04 5.95,0.71 11.32,-3.52 12.04,-9.47l5.48 -46.01c106.84,119.54 103.21,303.53 -11.51,418.28 -92.76,92.76 -233.97,115.86 -351.34,57.44 -5.34,-2.7 -11.85,-0.48 -14.53,4.87 -2.73,5.34 -0.53,11.82 4.81,14.49z"/>
    </g>
    <g>
     <path class="fil2" d="M8859.33 3518.6l-1959.85 0c-35.72,0 -64.69,-28.97 -64.69,-64.69l0 0c0,-35.72 28.95,-64.69 64.69,-64.69l1959.85 0c35.72,0 64.69,28.95 64.69,64.69l0 0c-0.03,35.74 -28.97,64.69 -64.69,64.69z"/>
     <path class="fil4" d="M8159.48 3799.77l-1260.02 0c-35.72,0 -64.69,-28.97 -64.69,-64.69l0 0c0,-35.72 28.95,-64.69 64.69,-64.69l1260.02 0c35.72,0 64.69,28.95 64.69,64.69l0 0c0,35.74 -28.97,64.69 -64.69,64.69z"/>
     <path class="fil4" d="M8159.48 4101.66l-1260.02 0c-35.72,0 -64.69,-28.95 -64.69,-64.69l0 0c0,-35.72 28.95,-64.69 64.69,-64.69l1260.02 0c35.72,0 64.69,28.95 64.69,64.69l0 0c0,35.72 -28.97,64.69 -64.69,64.69z"/>
    </g>
    <g>
     <path class="fil4" d="M1910.18 2443.86l-1018.04 0c-35.72,0 -64.69,-28.97 -64.69,-64.69l0 0c0,-35.72 28.95,-64.69 64.69,-64.69l1018.04 0c35.72,0 64.69,28.95 64.69,64.69l0 0c-0.02,35.74 -28.97,64.69 -64.69,64.69z"/>
     <path class="fil2" d="M1525.82 2725.03l-633.68 0c-35.72,0 -64.69,-28.97 -64.69,-64.69l0 0c0,-35.72 28.95,-64.69 64.69,-64.69l633.68 0c35.72,0 64.69,28.95 64.69,64.69l0 0c0,35.75 -28.97,64.69 -64.69,64.69z"/>
     <path class="fil2" d="M1525.82 3026.92l-633.68 0c-35.72,0 -64.69,-28.97 -64.69,-64.69l0 0c0,-35.72 28.95,-64.69 64.69,-64.69l633.68 0c35.72,0 64.69,28.95 64.69,64.69l0 0c0,35.72 -28.97,64.69 -64.69,64.69z"/>
    </g>
    <g>
     <path class="fil17" d="M7976.36 7132.86c-63.45,184.07 -139.25,344.75 -218.52,489.85 -273.95,500.46 -592.06,818.81 -603.96,1285.48 0,0 -98.74,-439.61 -19.5,-940.51 44.4,-281.31 144.89,-581.9 350.39,-834.81 571.92,-703.37 487.26,-1343.08 487.26,-1343.08 0,0 286.72,524.69 4.33,1343.07z"/>
     <g>
      <path class="fil13" d="M7302.52 8360.76c-8.39,-58.34 -6.11,-115.12 -0.77,-172.14 5.64,-56.81 15.85,-113.11 30.45,-168.14 28.36,-110.36 70.51,-216.69 121.71,-318.03 24.66,-51.22 54.11,-99.85 82.89,-148.72l92.08 -142.19c58.68,-95.59 108.19,-196.98 149.86,-301.52 42.02,-104.4 77.39,-211.56 107.08,-320.28 29.98,-108.64 54.5,-218.84 73.82,-329.94 19.39,-111.07 33.58,-223.15 40.59,-335.73 3.36,-56.28 4.92,-112.74 2.49,-169.1 -1.4,-28.15 -3.18,-56.36 -7.75,-84.19 -4.63,-27.68 -9.79,-55.88 -22.94,-81.07 13.57,24.98 19.24,53.18 24.32,80.83 5.05,27.83 7.28,56.07 9.15,84.27 3.36,56.44 2.73,113.06 0.29,169.52 -4.92,112.98 -18.26,225.48 -36.41,337.08 -18.15,111.63 -41.54,222.41 -70.46,331.81 -28.63,109.46 -62.97,217.54 -104.14,323.11 -40.83,105.67 -89.61,208.54 -148.03,306.1l-91.25 142.69c-28.34,48.45 -57.39,96.63 -81.57,147.29 -50.32,100.25 -91.57,205.21 -119.17,313.72 -14.13,54.13 -24.05,109.33 -30.19,164.78 -5.77,55.14 -8.07,112.16 -0.77,165.79l0.13 1.01c0.79,5.93 -3.33,11.38 -9.26,12.17 -5.88,0.86 -11.3,-3.24 -12.15,-9.12z"/>
     </g>
     <path class="fil13" d="M7757.87 7622.71c-273.95,500.46 -592.06,818.81 -603.96,1285.48 0,0 -98.74,-439.61 -19.5,-940.51 177.56,-72.56 427.24,-190.8 623.46,-344.97z"/>
     <path class="fil4" d="M7312.68 9402.22c0,0 -200.05,-342.03 273.37,-764.09 473.42,-422.06 843.92,-980.25 771.87,-1431.87 -452.83,526.1 -1656.98,1272.12 -1317.33,2195.88l272.09 0.08z"/>
     <g>
      <path class="fil13" d="M8357.94 7206.25c-45.19,99.67 -105.75,191.64 -170.95,279.35 -65.91,87.34 -138.35,169.68 -215.53,247.31 -76.44,78.42 -160.89,148.64 -244.58,218.76 -83.19,70.49 -158.56,150.1 -225.77,235.85 -134.33,171.5 -239.37,366.77 -302.66,574.99 -30.9,104.14 -52.15,211.67 -55.14,320.04 -3.18,107.9 10.64,217.7 53.84,316.28 2.41,5.48 -0.05,11.85 -5.53,14.29 -5.48,2.41 -11.85,-0.05 -14.29,-5.53l-0.05 -0.11c-44.05,-102.87 -57.04,-215.64 -52.92,-325.57 3.97,-110.41 26.46,-219.13 58.53,-324.14 65.7,-209.89 173.14,-405.53 309.69,-576.98 68.34,-85.73 144.81,-165.15 229.02,-235.35 84.46,-69.59 168.99,-138.67 245.98,-216.38 77.63,-76.81 150.63,-158.41 217.17,-245.11 65.93,-87.04 127.18,-178.42 173.19,-277.7z"/>
     </g>
    </g>
    <g>
     <path class="fil17" d="M518.21 6924.47c0,0 -247.02,-225.11 -378.22,-787.96 756.44,641.3 941.71,1212.45 941.71,1212.45l-563.49 -424.49z"/>
     <g>
      <path class="fil13" d="M139.99 6136.52c105.22,150.57 208.15,302.79 308.29,456.88 50.03,77.07 99.03,154.83 146.63,233.55 47.33,78.87 93.66,158.43 132.11,243.1 2.46,5.45 0.08,11.85 -5.37,14.34 -5.45,2.46 -11.85,0.05 -14.34,-5.37 -0.03,-0.05 -0.05,-0.11 -0.05,-0.13l-0.16 -0.37c-35.9,-83.37 -80.57,-163.88 -126.18,-243.31 -45.91,-79.4 -93.29,-158.04 -141.76,-235.98 -97.06,-155.93 -196.94,-310.1 -299.17,-462.71z"/>
     </g>
     <path class="fil4" d="M1066.29 7240.91c-136,-122.58 -337.4,-244.05 -529.03,-374.86 -254.87,-173.88 -492.44,-364.89 -536.42,-598.12 -100.04,841.75 879,1220.73 879,1220.73l1.96 2.8 355.57 518.66c0,-0.01 145.31,-483.56 -171.08,-769.21z"/>
     <g>
      <path class="fil13" d="M0.84 6267.94c0.61,93.82 27.86,185.61 67.34,269.9 41.17,83.85 97.05,160.15 163.62,225.45 66.52,65.56 143.27,119.46 221.64,170.31 78.32,51.04 157.93,100.3 235.37,153.09 154.38,104.91 302.39,227.36 405.9,386.27 105.04,157.67 153.51,348.85 153.51,537.18 0.03,5.98 -4.79,10.85 -10.77,10.87 -5.98,0.03 -10.85,-4.79 -10.87,-10.77l0 -0.16c1.69,-185.05 -43.82,-372.32 -145.49,-528.35 -100.2,-157.19 -245.48,-280.11 -398.38,-386.16 -76.68,-53.37 -155.76,-103.35 -233.71,-155.23 -77.97,-51.65 -154.68,-106.6 -220.98,-173.25 -66.33,-66.33 -121.76,-143.59 -162.24,-228.12 -38.88,-84.95 -65.23,-177.21 -64.94,-271.03z"/>
     </g>
    </g>
    <path class="fil0" d="M8036.32 9777.82l-6577.81 0c-103.74,0 -187.83,-84.08 -187.83,-187.83l0 0c0,-103.74 84.11,-187.83 187.83,-187.83l6577.81 0c103.74,0 187.85,84.08 187.85,187.83l0 0c0,103.72 -84.11,187.83 -187.85,187.83z"/>
   </g>
  </g>
 </g>
</svg>
