<?xml version="1.0" encoding="UTF-8"?>
<!DOCTYPE svg PUBLIC "-//W3C//DTD SVG 1.1//EN" "http://www.w3.org/Graphics/SVG/1.1/DTD/svg11.dtd">
<!-- Creator: CorelDRAW -->
<svg xmlns="http://www.w3.org/2000/svg" xml:space="preserve" width="61.314mm" height="60.6704mm" version="1.1" style="shape-rendering:geometricPrecision; text-rendering:geometricPrecision; image-rendering:optimizeQuality; fill-rule:evenodd; clip-rule:evenodd"
viewBox="0 0 6131.4 6067.04"
 xmlns:xlink="http://www.w3.org/1999/xlink"
 xmlns:xodm="http://www.corel.com/coreldraw/odm/2003">
 <defs>
  <style type="text/css">
   <![CDATA[
    .fil0 {fill:black}
   ]]>
  </style>
 </defs>
 <g id="Capa_x0020_1">
  <metadata id="CorelCorpID_0Corel-Layer"/>
  <polygon class="fil0" points="3000.72,687.66 3000.72,689.52 3065.7,624.52 3130.68,689.52 5508.73,3068.15 4160.03,4416.91 4160.03,4239.25 4160.03,3986.71 3762.01,3760.17 3604.22,3670.45 3604.22,3964.44 3762.01,4054.16 3762.01,4814.87 3528.7,5048.23 3528.7,4111.75 3528.7,3921.73 3528.7,3684.02 3528.7,3578.79 3528.7,2187.4 3762.01,2318 3762.01,3465.54 4160.03,3692.09 4160.03,2084.03 3528.7,1731.22 3130.68,1508.4 3130.68,5446.2 3130.68,6067.04 3135.03,6064.58 4160.03,5038.96 6131.4,3068.15 3130.68,67.46 3130.68,64.99 3065.7,0 3000.72,64.99 -0,3065.69 1971.38,5037.07 2595.29,5661.63 2603.33,5665.93 3000.72,5886.92 3000.72,5444.36 3000.72,4359.31 2603.33,4586.49 2603.33,5046.34 2368.75,4812.41 2368.75,4720.8 2368.75,4426.81 2368.75,3497.09 2368.75,3203.1 2368.75,2132.31 2368.75,1684.8 2305,1720.08 1971.38,1905.77 1971.38,2353.28 1971.38,2975.34 1971.38,3269.34 1971.38,4414.39 622.67,3065.69 "/>
 </g>
</svg>
